<?xml version="1.0" encoding="utf-8"?>
<svg id="svg2" xmlns="http://www.w3.org/2000/svg" viewBox="0 0 1560 4680" width="1560px" height="4680px">
  <desc>Source: openclipart.org/detail/209545</desc>
  <defs>
    <linearGradient id="_Linear1" x1="0" y1="0" x2="1" y2="0" gradientUnits="userSpaceOnUse" gradientTransform="matrix(60.7946,86.252,-86.252,60.7946,24.4054,-6.53107)">
      <stop offset="0" style="stop-color:rgb(233,28,255);stop-opacity:1"/>
      <stop offset="1" style="stop-color:rgb(0,224,255);stop-opacity:1"/>
    </linearGradient>
    <linearGradient id="_Linear2" x1="0" y1="0" x2="1" y2="0" gradientUnits="userSpaceOnUse" gradientTransform="matrix(4.74325,7.45069,-7.45069,4.74325,3.77675,1.448)">
      <stop offset="0" style="stop-color:rgb(0,224,255);stop-opacity:1"/>
      <stop offset="1" style="stop-color:rgb(233,28,255);stop-opacity:1"/>
    </linearGradient>
    <linearGradient id="_Linear3" x1="0" y1="0" x2="1" y2="0" gradientUnits="userSpaceOnUse" gradientTransform="matrix(-6.01316,-6.13048,6.13048,-6.01316,11.3098,8.11353)">
      <stop offset="0" style="stop-color:rgb(0,224,255);stop-opacity:1"/>
      <stop offset="0.57" style="stop-color:rgb(161,89,255);stop-opacity:1"/>
      <stop offset="1" style="stop-color:rgb(233,28,255);stop-opacity:1"/>
    </linearGradient>
    <linearGradient id="gradient-1" x1="0" y1="0" x2="1" y2="0" gradientUnits="userSpaceOnUse" gradientTransform="matrix(60.7946,86.252,-86.252,60.7946,24.4054,-6.53107)">
      <stop offset="0" style="stop-color:rgb(233,28,255);stop-opacity:1"/>
      <stop offset="1" style="stop-color:rgb(0,224,255);stop-opacity:1"/>
    </linearGradient>
    <linearGradient id="gradient-2" x1="0" y1="0" x2="1" y2="0" gradientUnits="userSpaceOnUse" gradientTransform="matrix(4.74325,7.45069,-7.45069,4.74325,3.77675,1.448)">
      <stop offset="0" style="stop-color:rgb(0,224,255);stop-opacity:1"/>
      <stop offset="1" style="stop-color:rgb(233,28,255);stop-opacity:1"/>
    </linearGradient>
    <linearGradient id="gradient-3" x1="0" y1="0" x2="1" y2="0" gradientUnits="userSpaceOnUse" gradientTransform="matrix(-6.01316,-6.13048,6.13048,-6.01316,11.3098,8.11353)">
      <stop offset="0" style="stop-color:rgb(0,224,255);stop-opacity:1"/>
      <stop offset="0.57" style="stop-color:rgb(161,89,255);stop-opacity:1"/>
      <stop offset="1" style="stop-color:rgb(233,28,255);stop-opacity:1"/>
    </linearGradient>
  </defs>
  <g transform="matrix(0, -200, 200, 0, 774.150024, 1166.099976)" style="transform-origin: 5.85px 3.9px;">
    <g transform="matrix(0.1,0,0,0.1,1.77636e-15,1.77636e-15)">
      <rect x="0" y="0" width="117" height="78" style="fill:url(#_Linear1);"/>
    </g>
    <path d="M-0,4.954C0.028,4.927 0.057,4.901 0.087,4.877C0.238,4.752 0.418,4.647 0.601,4.578C0.859,4.481 1.154,4.428 1.43,4.433C2.84,4.455 3.593,5.837 4.736,6.434C5.162,6.656 5.9,6.946 6.346,6.622C6.842,6.263 6.147,5.687 5.828,5.531C5.025,5.139 3.879,5.201 3.498,4.213C3.451,4.093 3.426,3.966 3.422,3.837C3.417,3.679 3.446,3.518 3.504,3.372C4.018,2.079 5.725,1.971 6.894,1.967C7.382,1.965 7.961,2.024 8.413,1.8C9.103,1.457 8.908,0.602 8.581,0.074C8.566,0.049 8.55,0.024 8.534,0L11.7,0L11.7,7.8L0,7.8L-0,4.954Z" style="fill:url(#_Linear2);"/>
    <path d="M9.172,0L11.7,0L11.7,7.8L0,7.8L0,7.675C0.278,7.016 1.1,6.528 1.754,6.372C3.107,6.05 4.264,6.696 5.545,6.974C6.826,7.252 8.149,7.051 9.23,6.29C10.826,5.167 11.108,2.625 10.116,1.022C9.87,0.624 9.543,0.284 9.172,0Z" style="fill:url(#_Linear3);"/>
  </g>
  <g transform="matrix(0, 200, 200, 0, 772.28125, 3504.859375)" style="transform-origin: 5.84375px 3.890625px;">
    <g transform="matrix(0.1,0,0,0.1,1.77636e-15,1.77636e-15)">
      <rect x="0" y="0" width="117" height="78" style="fill: url(&quot;#gradient-1&quot;);"/>
    </g>
    <path d="M-0,4.954C0.028,4.927 0.057,4.901 0.087,4.877C0.238,4.752 0.418,4.647 0.601,4.578C0.859,4.481 1.154,4.428 1.43,4.433C2.84,4.455 3.593,5.837 4.736,6.434C5.162,6.656 5.9,6.946 6.346,6.622C6.842,6.263 6.147,5.687 5.828,5.531C5.025,5.139 3.879,5.201 3.498,4.213C3.451,4.093 3.426,3.966 3.422,3.837C3.417,3.679 3.446,3.518 3.504,3.372C4.018,2.079 5.725,1.971 6.894,1.967C7.382,1.965 7.961,2.024 8.413,1.8C9.103,1.457 8.908,0.602 8.581,0.074C8.566,0.049 8.55,0.024 8.534,0L11.7,0L11.7,7.8L0,7.8L-0,4.954Z" style="fill: url(&quot;#gradient-2&quot;);"/>
    <path d="M9.172,0L11.7,0L11.7,7.8L0,7.8L0,7.675C0.278,7.016 1.1,6.528 1.754,6.372C3.107,6.05 4.264,6.696 5.545,6.974C6.826,7.252 8.149,7.051 9.23,6.29C10.826,5.167 11.108,2.625 10.116,1.022C9.87,0.624 9.543,0.284 9.172,0Z" style="fill: url(&quot;#gradient-3&quot;);"/>
  </g>
</svg>