<?xml version="1.0" encoding="utf-8"?>
<svg id="svg2" xmlns="http://www.w3.org/2000/svg" viewBox="0 0 1080 1920" width="1080px" height="1920px">
  <desc>Source: openclipart.org/detail/209545</desc>
  <defs>
    <linearGradient id="_Linear1" x1="0" y1="0" x2="1" y2="0" gradientUnits="userSpaceOnUse" gradientTransform="matrix(32.5667,94.9203,-94.9203,32.5667,46.9386,-95.7844)">
      <stop offset="0" style="stop-color:rgb(255,147,0);stop-opacity:1"/>
      <stop offset="0.54" style="stop-color:rgb(91,42,37);stop-opacity:1"/>
      <stop offset="1" style="stop-color:rgb(26,0,52);stop-opacity:1"/>
    </linearGradient>
    <linearGradient id="_Linear2" x1="0" y1="0" x2="1" y2="0" gradientUnits="userSpaceOnUse" gradientTransform="matrix(-3.71707,-6.89758,6.89758,-3.71707,7.15982,5.44679)">
      <stop offset="0" style="stop-color:rgb(255,147,0);stop-opacity:1"/>
      <stop offset="0.46" style="stop-color:rgb(88,46,52);stop-opacity:1"/>
      <stop offset="1" style="stop-color:rgb(42,18,67);stop-opacity:1"/>
    </linearGradient>
    <linearGradient id="_Linear3" x1="0" y1="0" x2="1" y2="0" gradientUnits="userSpaceOnUse" gradientTransform="matrix(2.77145,-8.0179,8.0179,2.77145,3.7209,8.34253)">
      <stop offset="0" style="stop-color:rgb(42,18,67);stop-opacity:1"/>
      <stop offset="1" style="stop-color:rgb(255,147,0);stop-opacity:1"/>
    </linearGradient>
    <linearGradient id="_Linear4" x1="0" y1="0" x2="1" y2="0" gradientUnits="userSpaceOnUse" gradientTransform="matrix(-2.38834,5.78267,-5.78267,-2.38834,8.4355,-0.265329)">
      <stop offset="0" style="stop-color:rgb(42,18,67);stop-opacity:1"/>
      <stop offset="1" style="stop-color:rgb(255,147,0);stop-opacity:1"/>
    </linearGradient>
  </defs>
  <g transform="matrix(0, -200, 200, 0, 774.170776, 1166.137939)" style="transform-origin: 5.850189px 3.899895px;">
    <g transform="matrix(0.1,0,0,0.1,1.77636e-15,8.3)">
      <rect x="0" y="-83" width="117" height="78" style="fill:url(#_Linear1);"/>
    </g>
    <g transform="matrix(1.17476,0,0,1.17476,-1.37705,0.583646)">
      <path d="M3.669,-0.497L11.132,-0.497L11.132,2.177C11.083,2.152 11.033,2.13 10.979,2.112C9.825,1.72 8.832,2.797 8.119,3.539C6.943,4.764 5.383,5.94 3.598,5.234C2.317,4.728 1.84,3.392 2.102,2.098C2.303,1.103 2.894,0.176 3.669,-0.497Z" style="fill:url(#_Linear2);"/>
    </g>
    <path d="M11.7,2.607L11.7,3.142C11.643,3.112 11.584,3.086 11.521,3.065C10.165,2.605 8.998,3.87 8.161,4.742C6.779,6.18 4.946,7.561 2.85,6.733C1.345,6.138 0.784,4.568 1.092,3.049C1.328,1.88 2.023,0.79 2.933,-0L3.029,-0C2.779,0.297 2.557,0.618 2.361,0.952C1.815,1.885 1.463,2.975 1.627,4.064C1.716,4.659 2.002,5.246 2.568,5.518C3.366,5.9 4.247,5.568 4.945,5.127C6.489,4.153 7.621,2.236 9.516,1.874C10.19,1.745 10.981,1.897 11.492,2.379C11.569,2.451 11.638,2.527 11.7,2.607Z" style="fill:url(#_Linear3);"/>
    <path d="M3.53,-0L11.7,0L11.7,2.596C11.177,1.97 10.311,1.627 9.528,1.49C9,1.398 8.456,1.388 7.934,1.52C6.733,1.824 5.69,2.604 4.434,2.712C4.223,2.73 4.009,2.735 3.8,2.701C3.646,2.676 3.491,2.631 3.356,2.552C2.503,2.054 2.899,0.887 3.334,0.248C3.394,0.16 3.462,0.08 3.53,-0Z" style="fill:url(#_Linear4);"/>
    <g transform="matrix(0, -0.52845, 0.52845, 0, 7.584194, 1.831412)">
      <g transform="matrix(0.339872,0,0,0.339872,1.09335,1.47398)">
        <circle cx="1.591" cy="2.165" r="0.121" style="fill:white;"/>
      </g>
      <g transform="matrix(0.339872,0,0,0.339872,1.29495,1.47398)">
        <circle cx="1.591" cy="2.165" r="0.121" style="fill:white;"/>
      </g>
      <g transform="matrix(0.339872,0,0,0.339872,1.09335,1.78465)">
        <circle cx="1.591" cy="2.165" r="0.121" style="fill:white;"/>
      </g>
      <g transform="matrix(0.339872,0,0,0.339872,1.29495,1.78465)">
        <circle cx="1.591" cy="2.165" r="0.121" style="fill:white;"/>
      </g>
      <g transform="matrix(0.339872,0,0,0.339872,1.09335,2.09533)">
        <circle cx="1.591" cy="2.165" r="0.121" style="fill:white;"/>
      </g>
      <g transform="matrix(0.339872,0,0,0.339872,1.29495,2.09533)">
        <circle cx="1.591" cy="2.165" r="0.121" style="fill:white;"/>
      </g>
      <g transform="matrix(0.339872,0,0,0.339872,1.09335,2.406)">
        <circle cx="1.591" cy="2.165" r="0.121" style="fill:white;"/>
      </g>
      <g transform="matrix(0.339872,0,0,0.339872,1.29495,2.406)">
        <circle cx="1.591" cy="2.165" r="0.121" style="fill:white;"/>
      </g>
      <g transform="matrix(0.339872,0,0,0.339872,1.09335,2.71667)">
        <circle cx="1.591" cy="2.165" r="0.121" style="fill:white;"/>
      </g>
      <g transform="matrix(0.339872,0,0,0.339872,1.29495,2.71667)">
        <circle cx="1.591" cy="2.165" r="0.121" style="fill:white;"/>
      </g>
    </g>
    <g transform="matrix(0.069149, 0, 0, 0.069149, 3.569841, 4.334252)">
      <g>
        <circle cx="110.03" cy="-13.92" r="0.47" style="fill:white;"/>
      </g>
      <g>
        <circle cx="110.03" cy="-17.62" r="0.47" style="fill:white;"/>
      </g>
      <g>
        <circle cx="110.03" cy="-21.31" r="0.47" style="fill:white;"/>
      </g>
      <g>
        <rect x="109.85" y="-33.76" width="0.36" height="9.95" style="fill:white;"/>
      </g>
      <g>
        <g/>
      </g>
    </g>
  </g>
</svg>